<svg width="18" height="14" viewBox="0 0 18 14" fill="none" xmlns="http://www.w3.org/2000/svg">
<path d="M15.6667 0.333008H2.33335C1.41669 0.333008 0.67502 1.08301 0.67502 1.99967L0.666687 11.9997C0.666687 12.9163 1.41669 13.6663 2.33335 13.6663H15.6667C16.5834 13.6663 17.3334 12.9163 17.3334 11.9997V1.99967C17.3334 1.08301 16.5834 0.333008 15.6667 0.333008ZM14.8334 11.9997H3.16669C2.70835 11.9997 2.33335 11.6247 2.33335 11.1663V3.66634L8.11669 7.28301C8.65835 7.62467 9.34169 7.62467 9.88335 7.28301L15.6667 3.66634V11.1663C15.6667 11.6247 15.2917 11.9997 14.8334 11.9997ZM9.00002 6.16634L2.33335 1.99967H15.6667L9.00002 6.16634Z" fill="black"/>
</svg>
