<svg width="16" height="16" viewBox="0 0 16 16" fill="none" xmlns="http://www.w3.org/2000/svg">
<path d="M9.66667 4.66667H11.3333V6.33333C11.3333 6.79167 11.7083 7.16667 12.1667 7.16667C12.625 7.16667 13 6.79167 13 6.33333V4.66667H14.6667C15.125 4.66667 15.5 4.29167 15.5 3.83333C15.5 3.375 15.125 3 14.6667 3H13V1.33333C13 0.875 12.625 0.5 12.1667 0.5C11.7083 0.5 11.3333 0.875 11.3333 1.33333V3H9.66667C9.20834 3 8.83334 3.375 8.83334 3.83333C8.83334 4.29167 9.20834 4.66667 9.66667 4.66667ZM14.0083 10.725L11.8917 10.4833C11.3833 10.425 10.8833 10.6 10.525 10.9583L8.99167 12.4917C6.63334 11.2917 4.70001 9.36667 3.50001 7L5.04167 5.45833C5.40001 5.1 5.57501 4.59167 5.51667 4.09167L5.27501 1.99167C5.18334 1.15 4.46667 0.508333 3.62501 0.508333H2.18334C1.24167 0.508333 0.458339 1.29167 0.516672 2.23333C0.958339 9.35 6.65001 15.0333 13.7583 15.475C14.7 15.5333 15.4833 14.75 15.4833 13.8083V12.3667C15.4917 11.5333 14.85 10.8167 14.0083 10.725Z" fill="black"/>
</svg>
